<svg width="45" height="26" viewBox="0 0 45 26" fill="none" xmlns="http://www.w3.org/2000/svg">
<path d="M30.777 13H28.1081V26H30.777V13Z" fill="white"/>
<path d="M30 7.98633L27.5338 10.7523H31.0473L33.5135 7.98633H30Z" fill="#0092B7"/>
<path d="M24.4594 8.02124C22.2297 8.09039 20.2702 8.92018 18.6486 10.5452V8.02124H15.9459V26.0345H18.6486V17.0106C18.6486 15.2819 19.2567 13.8298 20.4392 12.6196C21.6216 11.4095 23.0743 10.7872 24.7297 10.7872H25.0675L27.5338 8.02124H24.4594Z" fill="white"/>
<path d="M43.8514 23.234C43.5473 23.234 43.277 23.1649 43.0068 23.0612C42.7365 22.9574 42.5 22.7846 42.3311 22.5771C42.1284 22.3697 41.9933 22.1277 41.8581 21.8511C41.7568 21.5745 41.6892 21.2979 41.6892 21.0213V10.7527H44.3581V7.9867H41.6892V0H38.9865V7.9867H35.946L33.4797 10.7527H38.9527V21.0213C38.9527 22.4043 39.4257 23.5798 40.3716 24.5479C41.3176 25.516 42.4662 26 43.8176 26H44.9662V23.234H43.8514Z" fill="white"/>
<path d="M13.4797 7.9867H10.1351L2.7027 16.1809V0H0V26H2.7027V19.8803L4.72973 17.5984L10.9122 26H14.1554L6.55405 15.5931L13.4797 7.9867Z" fill="white"/>
</svg>
